<svg width="65" height="64" viewBox="0 0 65 64" fill="none" xmlns="http://www.w3.org/2000/svg">
<path d="M9.90688 57.0615L4.87988 0.676025H60.1199L55.0879 57.053L32.4664 63.3245L9.90688 57.0615Z" fill="#1572B6"/>
<path d="M32.501 58.5309L50.7805 53.4629L55.081 5.28589H32.501V58.5309Z" fill="#33A9DC"/>
<path d="M32.501 25.7145H41.652L42.284 18.633H32.501V11.7175H49.842L49.676 13.573L47.976 32.63H32.501V25.7145Z" fill="white"/>
<path d="M32.5415 43.6744L32.511 43.6834L24.8095 41.6039L24.317 36.0884H17.376L18.3445 46.9469L32.51 50.8784L32.5415 50.8694V43.6744Z" fill="#EBEBEB"/>
<path d="M41.0636 32.3374L40.2306 41.5984L32.5176 43.6804V50.8754L46.6946 46.9464L46.7986 45.7779L48.0016 32.3374H41.0636Z" fill="white"/>
<path d="M32.5242 11.7175V18.633H15.8202L15.6817 17.079L15.3667 13.573L15.2012 11.7175H32.5242ZM32.5007 25.7155V32.631H24.8962L24.7577 31.077L24.4422 27.571L24.2772 25.7155H32.5007Z" fill="#EBEBEB"/>
</svg>
