<svg width="24" height="24" viewBox="0 0 24 24" fill="none" xmlns="http://www.w3.org/2000/svg">
<path d="M3.5277 21.3981L1.64258 0.25351H22.3576L20.4706 21.3949L11.9875 23.7467L3.5277 21.3981Z" fill="#FF944D"/>
<path d="M12 21.9491L18.8548 20.0486L20.4675 1.98224H12V21.9491Z" fill="#FF944D"/>
<path d="M12 9.64295H15.4316L15.6686 6.98739H12V4.39407H18.5029L18.4406 5.08989L17.8031 12.2363H12V9.64295Z" fill="#2C243B"/>
<path d="M12.0152 16.3779L12.0038 16.3813L9.11569 15.6015L8.931 13.5332H6.32812L6.69131 17.6051L12.0034 19.0794L12.0152 19.0761V16.3779Z" fill="#2C243B"/>
<path d="M15.2116 12.1266L14.8992 15.5994L12.0068 16.3802V19.0783L17.3232 17.6049L17.3622 17.1667L17.8133 12.1266H15.2116Z" fill="#2C243B"/>
<path d="M12.0088 4.39407V6.98739H5.74482L5.69288 6.40464L5.57476 5.08989L5.5127 4.39407H12.0088ZM12 9.64332V12.2366H9.14832L9.09638 11.6539L8.97807 10.3391L8.9162 9.64332H12Z" fill="#2C243B"/>
</svg>
