<svg xmlns="http://www.w3.org/2000/svg" fill="none" viewBox="0 0 128 128" id="Django--Streamline-Svg-Logos" height="128" width="128"><desc>Django Streamline Icon: https://streamlinehq.com</desc><path fill="#092e20" d="M96.0412 52.245733333333334c2.9378666666666664 0 5.652933333333333 0.31133333333333335 8.946666666666665 0.9787999999999999l-2.3470666666666666 4.944133333333333c-1.8249333333333333 -0.356 -0.14613333333333334 -0.04773333333333333 -1.5252 -0.18119999999999997v0.7123999999999999l0.0888 2.892533333333333 0.04413333333333333 3.7389333333333328c0.04453333333333333 0.9343999999999999 0.04453333333333333 1.8691999999999998 0.08933333333333333 2.8038666666666665v1.8694666666666664c0 5.875333333333334 -0.48960000000000004 8.634533333333334 -1.9582666666666664 10.904399999999999 -2.1365333333333334 3.3384 -5.830666666666667 4.9850666666666665 -11.082533333333332 4.9850666666666665 -2.6706666666666665 0 -4.984666666666667 -0.4005333333333333 -7.388399999999999 -1.3354666666666666v-6.32h0.0002666666666666667c2.4038666666666666 1.2461333333333333 4.807066666666667 1.8244 7.343866666666667 1.8244 4.495066666666666 0 6.409066666666666 -1.8244 6.409066666666666 -6.1864v-0.1336c-1.3352 0.6673333333333332 -2.6706666666666665 0.9346666666666665 -4.450533333333333 0.9346666666666665 -6.008799999999999 0 -9.837066666666665 -3.9612 -9.837066666666665 -10.236799999999999 0 -7.789466666666667 5.652933333333333 -12.1952 15.666933333333333 -12.1952Zm-62.172666666666665 0.4450666666666666V68.58c0 5.474666666666666 -0.4005333333333333 8.1004 -1.6021333333333332 10.370533333333332 -1.1129333333333333 2.181333333333333 -2.5818666666666665 3.5606666666666666 -5.608266666666666 5.074133333333333l-6.3648 -3.0266666666666664c3.0266666666666664 -1.4241333333333333 4.495333333333333 -2.67 5.429866666666666 -4.584533333333333 0.9794666666666667 -1.9582666666666664 1.2912 -4.228266666666666 1.2912 -10.192266666666665V52.690799999999996h6.854133333333333Zm81.75999999999999 -0.5785333333333333C122.48266666666666 52.11226666666667 126.66666666666666 56.42986666666667 126.66666666666666 63.41733333333333c0 7.166266666666666 -4.361466666666667 11.661466666666666 -11.3052 11.661466666666666 -6.854533333333333 0 -11.082799999999999 -4.317466666666666 -11.082799999999999 -11.260533333333331 0.0002666666666666667 -7.211066666666666 4.362266666666667 -11.706 11.349866666666665 -11.706Zm-68.53999999999999 0.08933333333333333c3.5161333333333333 0 5.830399999999999 0.9342666666666666 6.854399999999999 2.7592 0.5782666666666666 1.0237333333333334 0.7562666666666666 2.3587999999999996 0.7562666666666666 5.2077333333333335v13.930666666666667c-3.0714666666666663 0.4450666666666666 -6.9433333333333325 0.7567999999999999 -9.791733333333333 0.7567999999999999 -5.741466666666666 0 -8.323333333333332 -2.0035999999999996 -8.323333333333332 -6.453999999999999 0 -4.8072 3.4271999999999996 -7.0324 11.839599999999999 -7.7448V59.14399999999999c0 -1.2461333333333333 -0.6230666666666667 -1.6907999999999999 -2.3590666666666666 -1.6907999999999999 -2.5368 0 -5.385466666666667 0.712 -8.056266666666666 2.0919999999999996v-5.296666666666667h0.0002666666666666667c3.026933333333333 -1.4238666666666666 5.919733333333333 -2.046933333333333 9.079866666666666 -2.046933333333333Zm-24.124 -10.095866666666666v31.726666666666667c-3.5162666666666667 0.6676 -6.097733333333332 0.9346666666666665 -8.901599999999998 0.9346666666666665C5.695106666666666 74.76706666666666 1.3333333333333333 70.98413333333333 1.3333333333333333 63.72893333333333c0 -6.987866666666666 4.6290933333333335 -11.527333333333333 11.794693333333331 -11.527333333333333 1.1126399999999999 0 1.95824 0.08866666666666667 2.9821066666666667 0.3557333333333333v-10.4516h6.854399999999999Zm45.84386666666666 10.095866666666666c3.5161333333333333 0 6.0532 0.8008 7.567066666666666 2.3586666666666662 1.4241333333333333 1.4684 1.8689333333333331 3.0706666666666664 1.8689333333333331 6.4984v13.441066666666666h-6.854399999999999v-13.174133333333332c0 -2.6257333333333333 -0.8901333333333332 -3.6054666666666666 -3.3378666666666668 -3.6054666666666666 -0.9346666666666665 0 -1.7802666666666664 0.08906666666666666 -3.1603999999999997 0.48960000000000004v16.29h-6.854133333333333V53.75893333333333c4.05 -1.0681333333333334 7.388133333333333 -1.5573333333333332 10.770799999999998 -1.5573333333333332Zm-20.0732 12.951466666666665c-4.540133333333333 0.4450666666666666 -6.008799999999999 1.1574666666666666 -6.008799999999999 2.9375999999999998 0 1.3352 0.8459999999999999 1.9582666666666664 2.7152 1.9582666666666664 1.0238666666666667 0 1.958133333333333 -0.0888 3.2936 -0.3112v-4.584666666666666Zm66.80466666666666 -7.521866666666666c-2.7154666666666665 0 -4.2736 2.181333333333333 -4.2736 5.963866666666666 0.0002666666666666667 3.7836 1.5581333333333334 5.964266666666667 4.228266666666666 5.964266666666667 2.6262666666666665 0 4.184266666666666 -2.1810666666666663 4.184266666666666 -5.964266666666667 0 -3.7383999999999995 -1.5134666666666665 -5.963866666666666 -4.138933333333333 -5.963866666666666Zm-101.744 0.08893333333333332c-3.4716533333333333 0 -5.474666666666666 2.1365333333333334 -5.474666666666666 5.874933333333333 0 3.6499999999999995 1.914 5.6528 5.430133333333334 5.6528 0.7564 0 1.3797333333333333 -0.04453333333333333 2.3587999999999996 -0.17773333333333333v-10.994266666666665c-0.8010666666666666 -0.26666666666666666 -1.4686666666666666 -0.3557333333333333 -2.3142666666666667 -0.3557333333333333Zm76.05946666666667 1.0233333333333332c-1.6463999999999999 0.9349333333333334 -2.4926666666666666 2.6264 -2.4926666666666666 5.029733333333333 0 3.4273333333333333 1.691733333333333 5.3856 4.718133333333333 5.3856 0.9346666666666665 0 1.6914666666666665 -0.17826666666666668 2.5813333333333333 -0.4450666666666666v-2.3586666666666662c0 -0.8011999999999999 -0.04426666666666666 -1.6918666666666664 -0.04426666666666666 -2.626133333333333l-0.04426666666666666 -3.1598666666666664 -0.04466666666666667 -2.2699999999999996v-0.5344h-0.7123999999999999c-1.3349333333333333 -0.04453333333333333 -2.892533333333333 0.3112 -3.9612 0.9787999999999999ZM33.86853333333333 42.142266666666664v7.0324h-6.854133333333333v-7.0324h6.854133333333333Z" stroke-width="1.3333"></path></svg>