<svg width="44" height="64" viewBox="0 0 44 64" fill="none" xmlns="http://www.w3.org/2000/svg">
<g clip-path="url(#clip0_658_860)">
<path d="M22.0762 31.9999C22.0762 29.1709 23.2 26.4578 25.2004 24.4574C27.2008 22.4571 29.9139 21.3333 32.7428 21.3333C35.5718 21.3333 38.2849 22.4571 40.2853 24.4574C42.2857 26.4578 43.4095 29.1709 43.4095 31.9999C43.4095 34.8289 42.2857 37.542 40.2853 39.5424C38.2849 41.5428 35.5718 42.6666 32.7428 42.6666C29.9139 42.6666 27.2008 41.5428 25.2004 39.5424C23.2 37.542 22.0762 34.8289 22.0762 31.9999Z" fill="#1ABCFE"/>
<path d="M0.743164 53.3334C0.743164 50.5044 1.86697 47.7913 3.86736 45.7909C5.86775 43.7906 8.58085 42.6667 11.4098 42.6667H22.0765V53.3334C22.0765 56.1624 20.9527 58.8755 18.9523 60.8759C16.9519 62.8763 14.2388 64.0001 11.4098 64.0001C8.58085 64.0001 5.86775 62.8763 3.86736 60.8759C1.86697 58.8755 0.743164 56.1624 0.743164 53.3334Z" fill="#0ACF83"/>
<path d="M22.0762 0V21.3333H32.7428C35.5718 21.3333 38.2849 20.2095 40.2853 18.2091C42.2857 16.2087 43.4095 13.4956 43.4095 10.6667C43.4095 7.83769 42.2857 5.12458 40.2853 3.12419C38.2849 1.12381 35.5718 0 32.7428 0L22.0762 0Z" fill="#FF7262"/>
<path d="M0.743164 10.6667C0.743164 13.4956 1.86697 16.2087 3.86736 18.2091C5.86775 20.2095 8.58085 21.3333 11.4098 21.3333H22.0765V0H11.4098C8.58085 0 5.86775 1.12381 3.86736 3.12419C1.86697 5.12458 0.743164 7.83769 0.743164 10.6667Z" fill="#F24E1E"/>
<path d="M0.743164 31.9999C0.743164 34.8289 1.86697 37.542 3.86736 39.5424C5.86775 41.5428 8.58085 42.6666 11.4098 42.6666H22.0765V21.3333H11.4098C8.58085 21.3333 5.86775 22.4571 3.86736 24.4574C1.86697 26.4578 0.743164 29.1709 0.743164 31.9999Z" fill="#A259FF"/>
</g>
<defs>
<clipPath id="clip0_658_860">
<rect width="42.6667" height="64" fill="white" transform="translate(0.743164)"/>
</clipPath>
</defs>
</svg>
