<svg width="65" height="64" viewBox="0 0 65 64" fill="none" xmlns="http://www.w3.org/2000/svg">
<path d="M56.5551 29.4667L34.8217 7.73342C34.1551 7.06675 33.2217 6.66675 32.2884 6.66675C31.3551 6.66675 30.4217 7.06675 29.7551 7.73342L25.0884 12.4001L30.5551 17.8667C31.0884 17.6001 31.6217 17.4667 32.2884 17.4667C34.5551 17.4667 36.2884 19.2001 36.2884 21.4667C36.2884 22.1334 36.1551 22.6667 35.8884 23.2001L41.2217 28.5334C41.7551 28.2667 42.2884 28.1334 42.9551 28.1334C45.2217 28.1334 46.9551 29.8667 46.9551 32.1334C46.9551 34.4001 45.2217 36.1334 42.9551 36.1334C40.6884 36.1334 38.9551 34.4001 38.9551 32.1334C38.9551 31.4667 39.0884 30.9334 39.3551 30.4001L34.0217 25.0667C33.8884 25.0667 33.7551 25.2001 33.6217 25.2001V39.0667C35.2217 39.6001 36.2884 41.0667 36.2884 42.8001C36.2884 45.0667 34.5551 46.8001 32.2884 46.8001C30.0217 46.8001 28.2884 45.0667 28.2884 42.8001C28.2884 41.0667 29.3551 39.6001 30.9551 39.0667V25.0667C29.3551 24.5334 28.2884 23.0667 28.2884 21.3334C28.2884 20.6667 28.4217 20.1334 28.6884 19.6001L23.2217 14.1334L8.02175 29.4667C7.35508 30.1334 6.95508 31.0667 6.95508 32.0001C6.95508 32.9334 7.35508 33.8667 8.02175 34.5334L29.7551 56.2668C30.4217 56.9334 31.3551 57.3334 32.2884 57.3334C33.2217 57.3334 34.1551 56.9334 34.8217 56.2668L56.5551 34.5334C57.2217 33.8667 57.6217 32.9334 57.6217 32.0001C57.6217 31.0667 57.2217 30.1334 56.5551 29.4667Z" fill="#F4511E"/>
</svg>
