<svg width="64" height="64" viewBox="0 0 64 64" fill="none" xmlns="http://www.w3.org/2000/svg">
<path fill-rule="evenodd" clip-rule="evenodd" d="M31.9997 2.55151C15.3262 2.55151 1.80566 16.069 1.80566 32.7455C1.80566 46.0865 10.4572 57.404 22.4542 61.397C23.9627 61.677 24.5167 60.742 24.5167 59.9445C24.5167 59.2245 24.4887 56.846 24.4757 54.323C16.0757 56.1495 14.3032 50.7605 14.3032 50.7605C12.9297 47.2705 10.9507 46.3425 10.9507 46.3425C8.21066 44.4685 11.1572 44.5075 11.1572 44.5075C14.1887 44.72 15.7857 47.619 15.7857 47.619C18.4787 52.234 22.8492 50.9 24.5722 50.129C24.8432 48.1775 25.6257 46.845 26.4892 46.091C19.7827 45.3285 12.7322 42.739 12.7322 31.1695C12.7322 27.873 13.9122 25.1795 15.8437 23.0645C15.5297 22.3045 14.4962 19.2335 16.1357 15.0745C16.1357 15.0745 18.6707 14.263 24.4407 18.1695C26.8497 17.5 29.4332 17.1635 31.9997 17.152C34.5647 17.1635 37.1497 17.499 39.5632 18.1685C45.3262 14.262 47.8582 15.0735 47.8582 15.0735C49.5017 19.232 48.4682 22.3035 48.1547 23.0635C50.0907 25.1785 51.2622 27.872 51.2622 31.1685C51.2622 42.7655 44.1987 45.3185 37.4752 46.0665C38.5587 47.0035 39.5237 48.8415 39.5237 51.658C39.5237 55.698 39.4887 58.9495 39.4887 59.944C39.4887 60.7475 40.0327 61.689 41.5627 61.3925C53.5527 57.3955 62.1942 46.0815 62.1942 32.7455C62.1937 16.07 48.6747 2.55151 31.9997 2.55151Z" fill="#181616"/>
<path d="M13.2418 45.903C13.1753 46.053 12.9393 46.098 12.7243 45.9955C12.5043 45.8975 12.3818 45.693 12.4528 45.5425C12.5178 45.3875 12.7543 45.345 12.9728 45.4485C13.1928 45.547 13.3178 45.7535 13.2413 45.9035L13.2418 45.903ZM14.4648 47.2675C14.3213 47.401 14.0398 47.339 13.8488 47.1275C13.6508 46.9175 13.6138 46.636 13.7603 46.5005C13.9093 46.3675 14.1823 46.4305 14.3803 46.6405C14.5773 46.8535 14.6163 47.1325 14.4653 47.268L14.4648 47.2675ZM15.6558 49.006C15.4708 49.135 15.1678 49.0145 14.9808 48.746C14.7958 48.477 14.7958 48.1545 14.9858 48.026C15.1723 47.897 15.4708 48.0135 15.6608 48.2795C15.8448 48.552 15.8448 48.875 15.6558 49.006ZM17.2863 50.6865C17.1213 50.869 16.7683 50.82 16.5103 50.5715C16.2468 50.328 16.1733 49.9815 16.3388 49.7995C16.5068 49.6165 16.8613 49.6675 17.1208 49.9145C17.3843 50.1575 17.4638 50.5045 17.2873 50.686L17.2863 50.6865ZM19.5363 51.662C19.4628 51.8985 19.1238 52.006 18.7813 51.905C18.4398 51.8015 18.2163 51.525 18.2863 51.286C18.3563 51.0475 18.6978 50.936 19.0423 51.0435C19.3838 51.1465 19.6073 51.4215 19.5363 51.662ZM22.0078 51.8425C22.0163 52.0915 21.7263 52.2975 21.3678 52.3025C21.0063 52.311 20.7138 52.109 20.7103 51.864C20.7103 51.6125 20.9943 51.409 21.3553 51.402C21.7138 51.3955 22.0083 51.5955 22.0083 51.842L22.0078 51.8425ZM24.3068 51.4515C24.3498 51.694 24.1003 51.9435 23.7438 52.01C23.3938 52.075 23.0688 51.924 23.0238 51.6835C22.9808 51.4345 23.2348 51.185 23.5848 51.1205C23.9418 51.059 24.2618 51.205 24.3068 51.4515Z" fill="#181616"/>
</svg>
