<svg width="64" height="64" viewBox="0 0 64 64" fill="none" xmlns="http://www.w3.org/2000/svg">
<path d="M9.51813 56.9381L4.51562 0.830566H59.4836L54.4756 56.9296L31.9661 63.1696L9.51813 56.9381Z" fill="#E44D26"/>
<path d="M32 58.4L50.189 53.357L54.4685 5.41797H32V58.4Z" fill="#F16529"/>
<path d="M31.9996 26.2276H22.8936L22.2646 19.1806H31.9996V12.2996H14.7441L14.9091 14.1456L16.6001 33.1091H31.9996V26.2276ZM31.9996 44.0991L31.9691 44.1076L24.3056 42.0376L23.8161 36.5501H16.9076L17.8716 47.3546L31.9681 51.2676L31.9996 51.2591V44.0991Z" fill="#EBEBEB"/>
<path d="M31.9756 26.2276V33.1091H40.4491L39.6506 42.0336L31.9756 44.1051V51.2646L46.0831 47.3546L46.1866 46.1921L47.8036 28.0756L47.9711 26.2276H46.1171H31.9756ZM31.9756 12.2996V19.1806H48.5976L48.7356 17.6346L49.0496 14.1456L49.2141 12.2996H31.9756Z" fill="white"/>
</svg>
