<svg width="24" height="25" viewBox="0 0 24 25" fill="none" xmlns="http://www.w3.org/2000/svg">
<g clip-path="url(#clip0_676_334)">
<path d="M0.263672 0.46225H23.7357V23.9344H0.263672V0.46225Z" fill="#FF944D"/>
<path d="M21.8155 18.3362C21.6436 17.2654 20.9453 16.366 18.877 15.5273C18.1585 15.1971 17.3575 14.9607 17.1188 14.4162C17.0341 14.0993 17.0228 13.9208 17.0765 13.729C17.2304 13.1065 17.9735 12.9124 18.5624 13.0909C18.9417 13.2181 19.3008 13.5104 19.5173 13.9767C20.5302 13.3208 20.5282 13.3251 21.2354 12.8744C20.9765 12.4729 20.8383 12.2877 20.6688 12.1159C20.0596 11.4355 19.2295 11.0851 17.902 11.1119L17.2105 11.2013C16.5479 11.3687 15.9164 11.7166 15.5461 12.1829C14.435 13.4436 14.7518 15.6501 16.1039 16.5582C17.4359 17.5579 19.3927 17.7854 19.6426 18.7202C19.8858 19.8647 18.8015 20.2352 17.7237 20.1036C16.9295 19.9384 16.4877 19.5347 16.0102 18.8007C15.1312 19.3094 15.1312 19.3094 14.2274 19.8291C14.4417 20.2977 14.6669 20.5097 15.0262 20.9157C16.7264 22.6403 20.9812 22.5556 21.7443 19.9452C21.7752 19.8556 21.9807 19.2578 21.8155 18.3362ZM13.0246 11.2501H10.8292L10.8202 16.9261C10.8202 18.1332 10.8826 19.2398 10.6863 19.579C10.3651 20.2461 9.53278 20.1634 9.15347 20.0341C8.76741 19.8443 8.57109 19.5745 8.34366 19.1931C8.28122 19.0836 8.23434 18.9989 8.21859 18.9923L6.43359 20.0854C6.73041 20.6946 7.16766 21.2234 7.72772 21.5669C8.56434 22.069 9.68878 22.2229 10.8648 21.9529C11.6302 21.73 12.2905 21.2682 12.6363 20.5652C13.1362 19.6437 13.0289 18.5282 13.0244 17.2945C13.0357 15.2817 13.0246 13.2692 13.0246 11.2501Z" fill="#2C243B"/>
</g>
<defs>
<clipPath id="clip0_676_334">
<rect width="24" height="24" fill="white" transform="translate(0 0.198242)"/>
</clipPath>
</defs>
</svg>
