<svg width="24" height="25" viewBox="0 0 24 25" fill="none" xmlns="http://www.w3.org/2000/svg">
<path d="M20.8205 1.52727H3.29437C2.33672 1.52727 1.5 2.22886 1.5 3.19247V21.0768C1.5 22.0457 2.33672 22.9091 3.29437 22.9091H20.8153C21.7781 22.9091 22.5 22.04 22.5 21.0768V3.19247C22.5056 2.22886 21.7781 1.52727 20.8205 1.52727ZM8.00953 19.3501H5.00109V9.82609H8.00953V19.3501ZM6.60938 8.37804H6.58781C5.625 8.37804 5.00156 7.64829 5.00156 6.73479C5.00156 5.80459 5.64141 5.09202 6.62578 5.09202C7.61016 5.09202 8.2125 5.79934 8.23406 6.73479C8.23359 7.64829 7.61016 8.37804 6.60938 8.37804ZM19.0045 19.3501H15.9961V14.1425C15.9961 12.8949 15.5583 12.0425 14.4698 12.0425C13.6383 12.0425 13.1461 12.6153 12.9272 13.1732C12.8452 13.3737 12.8231 13.6467 12.8231 13.9254V19.3501H9.81469V9.82609H12.8231V11.1515C13.2609 10.5167 13.9448 9.6032 15.5363 9.6032C17.5111 9.6032 19.005 10.9286 19.005 13.786L19.0045 19.3501Z" fill="#FF944D"/>
</svg>
