<svg width="65" height="64" viewBox="0 0 65 64" fill="none" xmlns="http://www.w3.org/2000/svg">
<path d="M53.5793 34.6079C51.5287 34.6186 49.7527 35.1106 48.2647 35.8452C47.7207 34.7586 47.1687 33.8026 47.0767 33.0919C46.9687 32.2626 46.8433 31.7666 46.974 30.7786C47.1047 29.7906 47.6767 28.3906 47.6687 28.2852C47.6607 28.1799 47.5407 27.6772 46.358 27.6679C45.1753 27.6599 44.1633 27.8959 44.0447 28.2079C43.926 28.5199 43.698 29.2226 43.5567 29.9559C43.35 31.0279 41.1954 34.8532 39.9727 36.8532C39.5727 36.0719 39.2327 35.3839 39.162 34.8399C39.054 34.0106 38.9287 33.5146 39.0593 32.5266C39.19 31.5386 39.762 30.1386 39.754 30.0332C39.746 29.9279 39.626 29.4252 38.4433 29.4159C37.2607 29.4079 36.2487 29.6439 36.13 29.9559C36.0114 30.2679 35.8834 30.9972 35.642 31.7039C35.3993 32.4092 32.5367 38.7892 31.786 40.4439C31.4034 41.2866 31.0714 41.9639 30.8367 42.4252L30.8354 42.4226C30.8354 42.4226 30.8207 42.4532 30.7967 42.5052C30.5954 42.8986 30.4767 43.1159 30.4767 43.1159C30.4767 43.1159 30.478 43.1186 30.4807 43.1239C30.3207 43.4132 30.15 43.6812 30.066 43.6812C30.0074 43.6812 29.8887 42.9119 30.0914 41.8559C30.518 39.6426 31.5407 36.1919 31.5313 36.0719C31.526 36.0106 31.722 35.4092 30.8633 35.0946C30.0287 34.7892 29.7313 35.2986 29.6554 35.2999C29.582 35.3012 29.5273 35.4799 29.5273 35.4799C29.5273 35.4799 30.4567 31.5986 27.754 31.5986C26.0634 31.5986 23.722 33.4479 22.5687 35.1239C21.8407 35.5212 20.282 36.3719 18.63 37.2799C17.9954 37.6292 17.3474 37.9852 16.7327 38.3239C16.6914 38.2772 16.6487 38.2319 16.606 38.1852C13.3274 34.6879 7.26869 32.2146 7.52469 27.5119C7.61802 25.8026 8.21269 21.3012 19.1687 15.8426C28.1434 11.3706 35.3287 12.6012 36.57 15.3279C38.3433 19.2252 32.73 26.4666 23.41 27.5119C19.8594 27.9106 17.9887 26.5332 17.5234 26.0212C17.034 25.4812 16.9607 25.4572 16.778 25.5586C16.4807 25.7239 16.6687 26.1999 16.778 26.4839C17.0567 27.2079 18.198 28.4919 20.1447 29.1319C21.858 29.6946 26.0273 30.0026 31.0687 28.0519C36.7167 25.8679 41.126 19.7906 39.83 14.7119C38.5127 9.54658 29.9473 7.84791 21.8407 10.7279C17.01 12.4426 11.7874 15.1332 8.03135 18.6452C3.56602 22.8212 2.85402 26.4572 3.14735 27.9759C4.19002 33.3732 11.6287 36.8879 14.6074 39.4919C14.4607 39.5732 14.322 39.6492 14.1967 39.7186C12.7034 40.4572 7.03269 43.4252 5.61402 46.5599C4.00469 50.1159 5.87002 52.6679 7.10469 53.0119C10.93 54.0759 14.8554 52.1612 16.966 49.0146C19.0754 45.8692 18.818 41.7719 17.85 39.9026C17.838 39.8799 17.8247 39.8572 17.8127 39.8332C18.198 39.6052 18.5914 39.3732 18.9807 39.1439C19.7407 38.6972 20.4874 38.2812 21.134 37.9292C20.7714 38.9212 20.506 40.1119 20.3687 41.8306C20.206 43.8492 21.034 46.4586 22.1167 47.4852C22.594 47.9372 23.1674 47.9479 23.53 47.9479C24.79 47.9479 25.3647 46.8999 25.998 45.6599C26.774 44.1399 27.4634 42.3692 27.4634 42.3692C27.4634 42.3692 26.5994 47.1506 28.954 47.1506C29.8127 47.1506 30.6754 46.0372 31.0607 45.4706C31.062 45.4772 31.062 45.4799 31.062 45.4799C31.062 45.4799 31.0847 45.4426 31.1287 45.3692C31.218 45.2332 31.2687 45.1466 31.2687 45.1466C31.2687 45.1466 31.27 45.1372 31.2727 45.1212C31.618 44.5226 32.3834 43.1572 33.53 40.9052C35.0127 37.9959 36.434 34.3506 36.434 34.3506C36.434 34.3506 36.566 35.2412 36.9993 36.7159C37.254 37.5826 37.7953 38.5412 38.2234 39.4612C37.8794 39.9386 37.6687 40.2119 37.6687 40.2119C37.6687 40.2119 37.67 40.2172 37.674 40.2266C37.3993 40.5919 37.0914 40.9852 36.7687 41.3692C35.598 42.7626 34.2047 44.3546 34.018 44.8132C33.798 45.3546 33.85 45.7519 34.2754 46.0732C34.586 46.3066 35.138 46.3439 35.7154 46.3052C36.7673 46.2346 37.506 45.9732 37.8713 45.8146C38.4407 45.6132 39.1034 45.2972 39.7247 44.8399C40.8727 43.9959 41.5647 42.7892 41.498 41.1892C41.4607 40.3079 41.1807 39.4346 40.8247 38.6106C40.9287 38.4612 41.0327 38.3092 41.138 38.1572C42.9473 35.5119 44.3513 32.6052 44.3513 32.6052C44.3513 32.6052 44.4833 33.4959 44.9167 34.9706C45.1353 35.7159 45.5687 36.5306 45.958 37.3279C44.2567 38.7106 43.202 40.3172 42.8354 41.3706C42.158 43.3199 42.6887 44.2026 43.6833 44.4039C44.134 44.4946 44.7713 44.2879 45.25 44.0852C45.846 43.8879 46.562 43.5586 47.2313 43.0666C48.3793 42.2226 49.4833 41.0412 49.4167 39.4426C49.386 38.7146 49.1887 37.9919 48.9207 37.2986C50.3633 36.6972 52.23 36.3639 54.6087 36.6412C59.7113 37.2372 60.7113 40.4226 60.5207 41.7559C60.3287 43.0892 59.2593 43.8226 58.9007 44.0439C58.5434 44.2652 58.434 44.3426 58.4633 44.5066C58.5073 44.7452 58.6727 44.7372 58.978 44.6852C59.398 44.6146 61.6567 43.6012 61.754 41.1399C61.8753 38.0119 58.882 34.5799 53.5793 34.6079ZM14.25 47.8666C12.5594 49.7106 10.1994 50.4066 9.18602 49.8199C8.09269 49.1866 8.52602 46.4719 10.5994 44.5146C11.8634 43.3226 13.4954 42.2239 14.578 41.5479C14.8247 41.3999 15.186 41.1826 15.626 40.9186C15.6994 40.8772 15.7407 40.8546 15.7407 40.8546L15.7394 40.8519C15.8247 40.8012 15.9114 40.7492 16.0007 40.6946C16.7567 43.4799 16.0247 45.9319 14.25 47.8666ZM26.5634 39.4972C25.9754 40.9319 24.7434 44.6039 23.9927 44.4066C23.3487 44.2372 22.9567 41.4466 23.8647 38.6999C24.3207 37.3172 25.2967 35.6652 25.87 35.0239C26.7927 33.9919 27.8087 33.6546 28.0554 34.0732C28.3687 34.6066 26.9327 38.5972 26.5634 39.4972ZM36.7353 44.3506C36.486 44.4812 36.2567 44.5626 36.1513 44.4999C36.0727 44.4532 36.254 44.2812 36.254 44.2812C36.254 44.2812 37.526 42.9119 38.0273 42.2892C38.3193 41.9266 38.6567 41.4959 39.0247 41.0159C39.0274 41.0639 39.0287 41.1119 39.0287 41.1586C39.026 42.7986 37.442 43.9052 36.7353 44.3506ZM44.5714 42.5639C44.3847 42.4319 44.4167 42.0039 45.0287 40.6692C45.2687 40.1452 45.818 39.2639 46.77 38.4212C46.8807 38.7679 46.9473 39.0999 46.946 39.4092C46.934 41.4732 45.462 42.2439 44.5714 42.5639Z" fill="#F06292"/>
</svg>
