<svg width="105" height="64" viewBox="0 0 105 64" fill="none" xmlns="http://www.w3.org/2000/svg">
<g clip-path="url(#clip0_658_852)">
<mask id="mask0_658_852" style="mask-type:luminance" maskUnits="userSpaceOnUse" x="0" y="0" width="105" height="63">
<path d="M0.136719 0H104.864V62.8364H0.136719V0Z" fill="white"/>
</mask>
<g mask="url(#mask0_658_852)">
<path fill-rule="evenodd" clip-rule="evenodd" d="M52.5004 0C38.5367 0 29.8094 6.98182 26.3185 20.9455C31.5549 13.9636 37.664 11.3455 44.6458 13.0909C48.6293 14.0858 51.4764 16.9775 54.6279 20.1755C59.7614 25.3867 65.7038 31.4182 78.6822 31.4182C92.6458 31.4182 101.373 24.4364 104.864 10.4727C99.6276 17.4545 93.5185 20.0727 86.5367 18.3273C82.5532 17.3324 79.7062 14.4407 76.5547 11.2427C71.4211 6.03151 65.4788 0 52.5004 0ZM26.3185 31.4182C12.3549 31.4182 3.62763 38.4 0.136719 52.3636C5.37308 45.3818 11.4822 42.7636 18.464 44.5091C22.4475 45.5059 25.2945 48.3956 28.4461 51.5937C33.5796 56.8048 39.5219 62.8364 52.5004 62.8364C66.464 62.8364 75.1913 55.8545 78.6822 41.8909C73.4458 48.8727 67.3367 51.4909 60.3549 49.7455C56.3714 48.7505 53.5244 45.8589 50.3728 42.6608C45.2393 37.4497 39.297 31.4182 26.3185 31.4182Z" fill="#38BDF8"/>
</g>
</g>
<defs>
<clipPath id="clip0_658_852">
<rect width="104.727" height="64" fill="white" transform="translate(0.136719)"/>
</clipPath>
</defs>
</svg>
